# xmcd
#
# Track frame offsets:
#	150
#	16470
#	38664
#	57162
#	74575
#	95008
#	109335
#	124755
#	137776
#	151645
#
# Disc length: 2239 seconds
#
# Revision: 0
# Processed by: cddbd v1.5.2PL0 Copyright (c) Steve Scherf et al.
# Submitted via: EasyCDDAExtractor 16.0.6.1
#
DISCID=8608bd0a
DTITLE=Αντώνης Ρέμος  - Best Of Cd6
DYEAR=2012
DGENRE=Λαϊκά
TTITLE0=Τέρμα η ιστορία (Αντώνης Ρέμος)
TTITLE1=Μη ζητάς συγνώμη (Αντώνης Ρέμος)
TTITLE2=Σαββατόβραδα (Αντώνης Ρέμος)
TTITLE3=Καρδιά μου μην ανησυχείς (Αντώνης Ρέμος)
TTITLE4=Οι Άγγελοι (Αντώνης Ρέμος)
TTITLE5=Τα μεταξωτά σου χέρια (Αντώνης Ρέμος)
TTITLE6=Χαμογέλασε (Αντώνης Ρέμος)
TTITLE7=Στόμε με στόμα (Αντώνης Ρέμος)
TTITLE8=Για να την κερδίσεις (Αντώνης Ρέμος)
TTITLE9=Για εκατό ζωές ακόμα (Αντώνης ρέμος and Massimo Cataldo)
EXTD=
EXTT0=
EXTT1=
EXTT2=
EXTT3=
EXTT4=
EXTT5=
EXTT6=
EXTT7=
EXTT8=
EXTT9=
PLAYORDER=
